<svg width="379" height="66" viewBox="0 0 379 66" fill="none" xmlns="http://www.w3.org/2000/svg">
<path d="M64.4949 29.415C62.4562 29.415 60.7883 28.1281 60.2323 26.1058V25.922C59.6763 23.8997 60.6029 21.6936 62.4562 20.7744C63.3829 20.2228 63.7535 18.9359 63.1976 18.0167L61.5296 15.0752C60.9736 14.156 59.6763 13.7883 58.7496 14.3398C56.8963 15.4429 54.6724 15.0752 53.1897 13.6045C51.7071 12.1337 51.3364 9.92758 52.4484 8.08914C53.0044 7.16992 52.6337 5.88301 51.7071 5.33148L48.7418 3.67688C47.6298 3.12535 46.3325 3.49304 45.7765 4.41226C44.6645 6.2507 42.6259 6.98607 40.7726 6.43454H40.5873C38.5487 5.88301 37.066 4.04457 37.066 2.02228C37.066 0.91922 36.1394 0 35.0274 0H31.8768C30.5795 0 29.6528 0.91922 29.6528 2.20613C29.6528 4.22841 28.3555 5.88301 26.3169 6.43454H25.9462C24.0929 6.98607 21.8689 6.06685 20.9423 4.41226C20.3863 3.49304 19.089 3.12535 17.977 3.67688L15.1971 5.33148C14.2704 5.88301 13.8998 7.16992 14.4557 8.08914C15.5677 9.92758 15.1971 12.1337 13.7144 13.6045C12.2318 15.0752 10.0078 15.4429 8.15452 14.3398C7.04254 13.7883 5.93056 14.156 5.37457 15.0752L3.7066 18.0167C3.15061 18.9359 3.52127 20.2228 4.44792 20.7744C6.30122 21.8774 7.22787 23.8997 6.67188 25.922C5.93056 27.9443 4.07726 29.415 2.03863 29.415C0.92665 29.415 0 30.3343 0 31.4373V34.5627C0 35.8496 0.92665 36.7688 2.22396 36.7688C4.26259 36.7688 5.93056 38.0557 6.48655 40.078V40.2618C7.04254 42.2841 6.11589 44.4902 4.26259 45.4095C3.33594 45.961 2.96528 47.2479 3.52127 48.1671L5.18924 51.1086C5.74523 52.0279 7.04254 52.3955 7.96919 51.844C9.82249 50.7409 12.0465 51.1086 13.5291 52.5794C15.0117 54.0501 15.3824 56.2563 14.2704 58.0947C13.7144 59.0139 14.0851 60.3008 15.0117 60.8524L18.1623 62.507C19.089 63.0585 20.3863 62.6908 20.9423 61.7716C22.0543 59.9331 24.0929 59.0139 26.1315 59.5655H26.3169C28.3555 60.117 29.6528 61.7716 29.6528 63.7939C29.6528 64.8969 30.5795 66 31.8768 66H35.0274C36.1394 66 37.2513 65.0808 37.2513 63.7939C37.2513 61.7716 38.5487 60.117 40.5873 59.5655H40.7726C42.8112 59.0139 45.0352 59.9331 45.9619 61.7716C46.5178 62.6908 47.8152 63.0585 48.7418 62.507L51.7071 60.8524C52.6337 60.3008 53.0044 59.0139 52.4484 58.0947C51.3364 56.2563 51.7071 54.0501 53.1897 52.5794C54.6724 51.1086 56.8963 50.7409 58.7496 51.844C59.6763 52.3955 60.9736 52.0279 61.5296 51.1086L63.1976 48.1671C63.7535 47.2479 63.3829 45.961 62.4562 45.4095C60.6029 44.3064 59.6763 42.2841 60.2323 40.2618V40.078C60.7883 38.0557 62.4562 36.7688 64.4949 36.7688C65.6068 36.7688 66.7188 35.8496 66.7188 34.5627V31.4373C66.7188 30.3343 65.7922 29.415 64.4949 29.415ZM42.6259 27.5766H33.3594V29.415H42.6259V45.961H35.2127V55.1532H31.5061V45.961H24.0929V38.6072H33.3594V36.7688H24.0929V20.2228H31.5061V11.0306H35.2127V20.2228H42.6259V27.5766Z" fill="#5D69F7"/>
<path d="M31.5061 45.961H24.0929L31.5061 53.3148V45.961Z" fill="#6B77FF"/>
<path d="M33.3594 38.6072V36.7688H24.0929L25.9462 38.6072H33.3594Z" fill="#6B77FF"/>
<path d="M62.2709 45.4095C60.4176 44.3064 59.4909 42.2841 60.0469 40.2618V40.078C60.2323 38.9749 60.9736 38.2396 61.7149 37.688L35.2127 11.0306V20.2228H42.6259V27.5766H33.3594V29.415H42.6259V45.961H35.2127V55.1532H31.5061L37.8073 61.4039C38.3633 60.4847 39.29 59.9331 40.2166 59.7493H40.4019C42.4406 59.1978 44.6645 60.117 45.5912 61.9554C46.1472 62.8746 47.4445 63.2423 48.3711 62.6908L51.3364 61.0362C52.2631 60.4847 52.6337 59.1978 52.0777 58.2785C50.9658 56.4401 51.3364 54.234 52.8191 52.7632C54.3017 51.2925 56.5257 50.9248 58.379 52.0278C59.3056 52.5794 60.6029 52.2117 61.1589 51.2925L62.8269 48.351C63.5682 47.2479 63.3829 45.961 62.2709 45.4095Z" fill="#6B77FF"/>
<path d="M97.8543 26.1058V31.6212H108.789V36.9526H97.8543V45.4095H90.8117V20.7744H110.457V26.1058H97.8543Z" fill="#5D69F7"/>
<path d="M119.909 44.3064C117.87 43.2033 116.202 41.7326 114.905 39.7103C113.793 37.688 113.051 35.4819 113.051 33.0919C113.051 30.7019 113.607 28.4958 114.905 26.4735C116.017 24.4513 117.685 22.9805 119.909 21.8774C121.947 20.7744 124.356 20.2228 126.951 20.2228C129.546 20.2228 131.955 20.7744 133.994 21.8774C136.032 22.9805 137.7 24.4513 138.998 26.4735C140.11 28.4958 140.851 30.7019 140.851 33.0919C140.851 35.4819 140.295 37.688 138.998 39.7103C137.886 41.7326 136.218 43.2033 133.994 44.3064C131.955 45.4095 129.546 45.961 126.951 45.961C124.356 45.961 121.947 45.4095 119.909 44.3064ZM130.287 39.3426C131.399 38.7911 132.14 37.8719 132.696 36.7688C133.252 35.6657 133.623 34.3788 133.623 33.0919C133.623 31.6212 133.252 30.5181 132.696 29.415C132.14 28.312 131.214 27.5766 130.287 26.8412C129.175 26.2897 128.063 25.922 126.951 25.922C125.654 25.922 124.542 26.2897 123.615 26.8412C122.503 27.3928 121.762 28.312 121.206 29.415C120.65 30.5181 120.279 31.805 120.279 33.0919C120.279 34.5627 120.65 35.6657 121.206 36.7688C121.762 37.8719 122.688 38.6072 123.615 39.3426C124.727 39.8941 125.839 40.2618 126.951 40.2618C128.248 40.078 129.36 39.8941 130.287 39.3426Z" fill="#5D69F7"/>
<path d="M156.233 38.9749H152.341V45.5933H145.299V20.7744H156.789C159.013 20.7744 161.052 21.142 162.72 21.8774C164.388 22.6128 165.685 23.7159 166.612 25.0028C167.538 26.2897 167.909 27.9443 167.909 29.7827C167.909 31.6212 167.538 33.0919 166.612 34.3788C165.685 35.6657 164.573 36.7688 162.905 37.5042L168.28 45.2256H160.681L156.233 38.9749ZM159.755 27.2089C159.013 26.6574 157.901 26.2897 156.419 26.2897H152.527V33.4596H156.419C157.901 33.4596 159.013 33.0919 159.755 32.5404C160.496 31.9888 160.866 31.0696 160.866 29.7827C160.681 28.6796 160.496 27.7604 159.755 27.2089Z" fill="#5D69F7"/>
<path d="M192.743 40.078V45.4095H172.728V20.7744H192.373V26.1058H179.77V30.3342H190.89V35.4819H179.77V40.078H192.743Z" fill="#5D69F7"/>
<path d="M213.13 45.4095L207.94 37.6881L202.751 45.4095H194.782L203.863 32.9081L195.153 20.5906H203.122L208.126 27.7605L213.13 20.5906H220.728L212.018 32.5404L221.284 45.4095H213.13Z" fill="#5D69F7"/>
<path d="M241.114 26.2897H233.516V20.7744H255.755V26.2897H248.157V45.4095H241.114V26.2897Z" fill="#5D69F7"/>
<path d="M279.292 40.078V45.4095H259.277V20.7744H278.922V26.1058H266.319V30.3342H277.439V35.4819H266.319V40.078H279.292Z" fill="#5D69F7"/>
<path d="M286.891 45.2256C285.038 44.6741 283.37 44.1226 282.258 43.2033L284.667 38.0557C285.779 38.7911 287.076 39.3426 288.559 39.8941C290.042 40.2618 291.524 40.6295 292.822 40.6295C295.601 40.6295 296.899 39.8941 296.899 38.6072C296.899 37.8719 296.528 37.3203 295.787 36.9526C295.045 36.585 293.748 36.2173 292.08 35.8496C290.227 35.4819 288.559 34.9304 287.447 34.5627C286.15 34.195 285.038 33.2758 284.111 32.3565C283.184 31.2535 282.814 29.9666 282.814 28.312C282.814 26.8412 283.184 25.3705 284.111 24.2674C284.852 22.9805 286.15 22.0613 287.818 21.3259C289.486 20.5905 291.524 20.2228 293.933 20.2228C295.601 20.2228 297.269 20.4067 298.752 20.7744C300.42 21.1421 301.717 21.6936 303.015 22.429L300.791 27.5766C298.381 26.2897 296.157 25.7382 293.933 25.7382C292.451 25.7382 291.524 25.922 290.783 26.2897C290.227 26.6574 289.856 27.2089 289.856 27.9443C289.856 28.6797 290.227 29.0474 290.968 29.415C291.71 29.7827 293.007 30.1504 294.675 30.5181C296.528 30.8858 298.196 31.4373 299.308 31.805C300.605 32.1727 301.717 32.9081 302.644 34.0111C303.571 34.9304 303.941 36.4011 303.941 38.0557C303.941 39.5265 303.571 40.8134 302.644 42.1003C301.903 43.3872 300.605 44.3064 298.937 45.0418C297.269 45.7772 295.231 46.1448 292.822 46.1448C290.783 45.961 288.93 45.7772 286.891 45.2256Z" fill="#5D69F7"/>
<path d="M313.022 26.2897H305.424V20.7744H327.849V26.2897H320.25V45.4095H313.208V26.2897H313.022Z" fill="#5D69F7"/>
<path d="M351.201 40.078V45.4095H331.185V20.7744H350.83V26.1058H338.227V30.3342H349.347V35.4819H338.227V40.078H351.201Z" fill="#5D69F7"/>
<path d="M366.954 38.9749H363.062V45.5933H356.019V20.7744H367.51C369.733 20.7744 371.772 21.142 373.44 21.8774C375.108 22.6128 376.405 23.7159 377.332 25.0028C378.259 26.2897 378.629 27.9443 378.629 29.7827C378.629 31.6212 378.259 33.0919 377.332 34.3788C376.405 35.6657 375.293 36.7688 373.625 37.5042L379 45.2256H371.401L366.954 38.9749ZM370.289 27.2089C369.548 26.6574 368.436 26.2897 366.954 26.2897H363.062V33.4596H366.954C368.436 33.4596 369.548 33.0919 370.289 32.5404C371.031 31.9888 371.401 31.0696 371.401 29.7827C371.401 28.6796 371.031 27.7604 370.289 27.2089Z" fill="#5D69F7"/>
</svg>
